<svg xmlns="http://www.w3.org/2000/svg" width="463.6871" height="463.7872" viewBox="0 0 463.6871 463.7872">
  <g id="katman_2" data-name="katman 2">
    <g id="katman_1-2" data-name="katman 1">
      <g>
        <path d="M454.4414,167.9933C427.0466,78.0514,342.1994,7.7839,247.1869.6211A219.466,219.466,0,0,0,218.9.3168C114.7454,5.9218,24.0285,86.5478,4.1374,188.6008c-26.2195,134.5219,75.5039,263.4171,210.9954,274.488,111.8426,9.1385,215.605-72.5075,242.0917-180.2139a221.4082,221.4082,0,0,0,6.229-63.0849A211.384,211.384,0,0,0,454.4414,167.9933ZM232.66,449.1062c-121.4135-.4558-217.9061-97.1-217.45-217.754C15.6659,111.61,112.9183,14.9657,232.5083,15.4216a216.6078,216.6078,0,0,1,216.3864,217.906C448.7428,352.4617,351.3385,449.5621,232.66,449.1062Z"/>
        <path d="M156.53,83.8021c-31.7589-1.2157-59.567,8.3576-76.4342,36.9255-19.6024,33.43-19.9063,68.0766,1.0637,101.3551,20.0583,31.759,54.5525,40.2686,87.831,23.2494,2.1274-1.0637,4.7107-1.52,8.9655-3.0391.4558,25.8326,1.8235,50.2977-5.1666,74.0029-6.0782,20.6662-18.6906,29.48-40.2685,27.8081-5.1665-.4558-10.1811-4.2548-15.1957-6.3822,3.1911-3.7989,5.7744-8.2056,9.5733-11.0928,13.5241-10.637,13.22-30.8472-1.3676-39.9646-10.789-6.8381-22.3377-7.142-33.7345-1.52-10.7889,5.3185-15.5,14.5879-16.4113,26.1366-1.3676,20.21,10.3331,37.2294,31.911,44.0675,40.2685,13.0682,87.3751,4.2547,113.2078-46.4988,11.5487-22.49,17.323-46.6508,18.6906-71.7236,1.9754-37.8373-.3039-75.3706-17.323-110.1687C208.4991,100.0615,186.6174,85.0178,156.53,83.8021Zm14.284,138.5846c-2.7352,8.3576-9.1174,14.2839-19.15,14.2839-40.6009-.0066-25.9446-85.27-23.3975-108.1935.6079-5.47,2.5833-10.7887,4.7106-15.9552,3.3431-7.9017,9.2694-12.3085,18.2349-12.6124,9.4213-.152,16.5632,4.1028,19.1465,12.6124C181.1469,148.84,182.5145,185.7651,170.8139,222.3867Z"/>
        <path d="M359.6961,345.4717c-.1519-3.799-.3039-6.99-.4558-10.485-5.7744-.304-10.9409-.76-16.8672-1.0638v-94.821c-9.7253,4.7107-19.4505-3.7989-26.1366,7.5979-15.3477,26.2885-31.4551,52.1211-46.3468,78.5616-3.1911,5.6225-2.8872,13.22-4.4068,21.122H310.918c3.7989,20.8181,1.9754,23.5533-15.6515,26.44-1.9755.3039-3.495,3.3431-5.1666,5.1665,1.8235,1.6715,3.799,4.5587,5.6225,4.5587,19.2985.3039,38.597.3039,57.8955.152,7.9018,0,5.47-4.8627,4.7107-9.1174-17.1711-2.7352-20.0583-8.2057-14.5879-27.0483C348.7553,346.08,353.77,345.7756,359.6961,345.4717Zm-48.4742-11.3968H275.2082c12.1565-20.6661,23.4013-39.8127,36.0137-61.2386Z"/>
        <path d="M293.291,203.8479c17.0192,5.0146,33.7345,3.1911,49.538-4.7106,13.5241-6.8381,20.21-18.0829,18.9946-33.5825-1.2157-15.3476-10.0292-24.3131-23.8573-29.0238-4.8626-1.6715-9.8772-3.0391-16.8672-5.1665,6.23-2.1274,10.1811-3.495,14.132-4.8626,12.1565-4.1028,21.73-10.9409,22.6415-25.0729,1.0637-15.0437-4.7106-27.0483-18.3868-33.8863-16.8672-8.51-34.0383-8.2057-51.0574-.152A22.5726,22.5726,0,0,0,275.36,91.5518c1.0637,7.75,5.47,12.46,13.3721,13.22,7.5979.76,13.6762-2.1274,16.2594-9.5733s.6079-13.5242-6.686-17.3231c-1.3676-.6078-2.2794-1.9754-3.647-3.0391,12.4605-8.51,27.5042-5.0146,31.3031,8.51,2.4313,8.8135,2.5833,18.6907,1.52,27.96-1.2157,11.8526-8.0537,16.4113-20.21,16.7153-3.1911.1519-6.5341,2.2793-9.7252,3.495,3.3431,1.3676,6.8381,3.7989,10.1811,3.7989,8.8135-.152,15.6516,2.7352,18.5388,11.2448,4.5587,13.5241,4.7107,27.2-1.2157,40.1166-5.6224,12.3085-21.5778,14.8917-31.9109,5.6224,3.647-4.4067,9.2694-8.51,10.1811-13.3722.9118-4.7106-1.6715-12.3085-5.47-15.1957s-12.3085-3.9508-15.9555-1.5195c-4.8626,3.1911-8.9654,10.333-9.7252,16.2594C271.2573,190.1718,280.2228,199.8971,293.291,203.8479Z"/>
        <path d="M318.9717,218.8917c-13.6761,0-27.5042-.3039-41.18.152-2.8871.1519-5.7743,2.5832-8.6615,3.9508,2.5833,1.6716,5.3185,4.5587,7.9018,4.7107,27.808.3039,55.4642.3039,83.2722,0,2.5833,0,5.1666-2.5833,7.75-3.9509-2.7353-1.5195-5.3185-4.4067-8.0537-4.5587C346.324,218.5878,332.6478,218.8917,318.9717,218.8917Z"/>
      </g>
    </g>
  </g>
</svg>
